<svg fill="#40C057" xmlns="http://www.w3.org/2000/svg"  viewBox="15 15 100 100" width="90px" height="90px"><g transform="scale(2 2)"><path d="M53.444,17.557c0.927,0.6,1.192,1.838,0.592,2.766L52,23.472V40.23C52,51.15,51.15,52,40.23,52H23.77	C12.85,52,12,51.15,12,40.23V23.77C12,12.85,12.85,12,23.77,12h16.46c4.47,0,7.251,0.144,8.978,1.061L32.798,38.422l-9.021-10.337	c-0.726-0.831-1.988-0.919-2.822-0.192c-0.832,0.726-0.918,1.99-0.191,2.822l10.765,12.336c0.381,0.437,0.932,0.685,1.507,0.685	c0.048,0,0.095-0.001,0.143-0.005c0.627-0.045,1.195-0.381,1.536-0.909L50.679,18.15C51.279,17.223,52.517,16.957,53.444,17.557z"/></g></svg>